<?xml version="1.0" standalone="no"?>
<!DOCTYPE svg PUBLIC "-//W3C//DTD SVG 20010904//EN"
 "http://www.w3.org/TR/2001/REC-SVG-20010904/DTD/svg10.dtd">
<svg version="1.0" xmlns="http://www.w3.org/2000/svg"
 width="1000.000000pt" height="272.000000pt" viewBox="0 0 1000.000000 272.000000"
 preserveAspectRatio="xMidYMid meet">
<metadata>
Created by potrace 1.15, written by Peter Selinger 2001-2017
</metadata>
<g transform="translate(0.000000,272.000000) scale(0.100000,-0.100000)"
fill="#000000" stroke="none">
<path d="M7745 2652 c-81 -50 -227 -276 -307 -478 -14 -33 -23 -42 -49 -48
-17 -3 -163 -7 -323 -7 -160 -1 -445 -4 -633 -8 -326 -6 -343 -7 -370 -27 -16
-12 -29 -33 -31 -49 l-4 -27 678 7 c628 7 677 6 671 -9 -45 -117 -84 -311 -98
-481 l-11 -140 -41 -43 c-82 -84 -190 -139 -222 -112 -43 36 -1 147 100 258
75 83 83 116 39 151 -23 18 -41 21 -120 21 -52 0 -94 2 -94 4 0 2 10 25 22 52
15 35 22 70 22 121 1 62 -2 75 -23 97 -49 52 -134 41 -208 -27 -111 -103 -123
-238 -28 -326 l45 -42 -37 -35 c-39 -35 -145 -94 -171 -94 -9 0 -12 6 -7 18 4
9 11 44 16 76 35 214 -144 376 -300 273 -104 -69 -140 -252 -70 -361 29 -47
97 -102 136 -112 26 -7 28 -12 10 -35 -49 -65 -149 -89 -201 -48 -51 40 -70
94 -70 194 0 100 18 159 72 238 36 51 39 69 17 87 -20 17 -71 -16 -134 -87
-63 -71 -111 -168 -125 -254 -9 -63 -13 -69 -40 -79 -32 -11 -96 -14 -96 -4 0
4 9 21 19 38 59 95 79 252 42 331 -34 73 -95 115 -169 115 -51 0 -147 -48
-204 -102 -53 -49 -54 -49 -33 11 24 70 0 95 -79 80 -27 -5 -68 -20 -92 -34
-41 -24 -94 -78 -94 -95 0 -12 19 -23 44 -24 25 -2 26 7 -19 -141 -36 -116
-39 -122 -97 -176 -154 -147 -365 -172 -427 -50 -53 102 1 298 108 394 51 46
101 51 127 12 37 -56 -16 -168 -138 -288 -49 -48 -78 -85 -76 -95 17 -90 321
133 383 281 56 134 -54 238 -221 210 -196 -34 -345 -197 -376 -412 -12 -83
-13 -84 -63 -126 -59 -50 -111 -79 -127 -69 -29 18 21 184 136 449 30 71 33
116 8 138 -53 48 -204 -18 -345 -151 -31 -30 -57 -53 -57 -50 0 3 7 25 15 48
20 55 19 110 -1 139 -15 21 -23 23 -69 19 -66 -6 -141 -49 -235 -136 l-68 -62
26 80 c33 101 27 116 -45 114 -116 -3 -271 -141 -170 -152 32 -4 32 -3 -19
-156 -38 -112 -84 -174 -185 -250 -73 -55 -109 -61 -109 -16 0 45 55 208 127
374 78 180 78 196 0 196 -37 0 -70 -8 -112 -29 -103 -49 -149 -121 -82 -129
15 -2 27 -7 27 -11 0 -5 -16 -43 -35 -84 -48 -108 -93 -238 -101 -296 -13
-103 31 -161 123 -161 63 0 121 26 203 91 36 28 51 36 46 23 -26 -65 -15 -114
26 -114 35 0 98 40 123 78 13 20 37 76 53 124 34 100 94 191 189 285 60 59 97
82 111 69 3 -4 -32 -121 -78 -261 -70 -213 -81 -256 -70 -269 29 -36 118 -6
158 52 11 15 29 59 42 97 41 127 75 180 189 298 69 71 116 104 126 88 3 -6
-15 -54 -39 -109 -110 -244 -121 -349 -47 -417 54 -48 182 -12 289 81 l51 45
53 -55 c58 -60 122 -86 208 -86 90 0 222 49 309 114 19 14 36 24 37 23 2 -2
-11 -50 -29 -107 l-33 -105 -469 -6 c-493 -6 -560 -12 -747 -60 -200 -50 -378
-171 -378 -256 0 -35 17 -36 73 -4 154 88 396 116 1085 125 294 4 373 3 369
-7 -28 -73 -65 -210 -61 -222 16 -42 100 -20 153 40 16 18 41 69 56 114 l27
81 131 1 c1465 11 1816 17 1917 33 396 64 663 204 792 417 89 147 65 269 -52
269 -51 0 -100 -34 -210 -145 -110 -111 -142 -135 -184 -135 -32 0 -54 39 -67
120 -9 59 -9 59 32 122 57 88 177 335 219 451 l35 97 63 0 c73 0 123 19 142
54 20 38 6 46 -86 46 -77 0 -85 2 -80 18 58 187 85 447 52 497 -20 30 -40 31
-81 7z m-72 -271 c3 -15 4 -37 2 -47 -2 -10 -11 -61 -21 -111 l-16 -93 -49 0
c-27 0 -49 2 -49 4 0 16 76 218 92 244 24 39 34 40 41 3z m-68 -383 c-13 -65
-94 -295 -129 -368 l-36 -75 5 85 c7 98 18 168 46 298 l21 92 50 0 50 0 -7
-32z m-1231 -338 c14 -17 29 -47 33 -68 9 -42 9 -159 0 -168 -9 -9 -107 47
-128 74 -29 37 -40 90 -29 134 18 65 80 79 124 28z m-755 0 c46 -24 60 -162
28 -270 l-16 -55 -103 0 c-116 0 -163 -16 -200 -67 -25 -36 -35 -107 -19 -136
45 -84 230 -58 338 46 38 38 40 38 104 34 45 -3 77 1 103 12 46 19 56 20 56 4
0 -30 56 -89 107 -114 48 -24 62 -26 125 -21 94 8 176 49 268 133 38 35 79 64
90 64 59 0 183 73 273 160 l61 60 57 -12 57 -12 -40 -45 c-109 -122 -114 -241
-14 -315 20 -15 42 -21 84 -20 72 0 155 42 246 125 l64 59 12 -46 c7 -24 29
-63 49 -85 71 -81 171 -60 304 61 36 34 89 90 117 125 38 48 58 65 76 65 34 0
32 -36 -6 -115 -62 -131 -176 -224 -337 -275 -212 -68 -284 -71 -1163 -51
-261 6 -595 11 -741 11 -146 0 -300 3 -341 6 l-75 7 62 191 c66 205 104 290
167 374 71 95 149 133 207 102z"/>
<path d="M3275 2586 c-106 -34 -224 -114 -298 -204 -59 -71 -125 -204 -169
-341 l-33 -103 -44 5 c-90 10 -124 67 -96 162 26 91 17 115 -41 101 -30 -8
-106 -76 -133 -120 -30 -47 -43 -118 -32 -169 19 -84 120 -136 243 -125 31 3
48 1 48 -6 0 -6 -56 -180 -123 -386 l-123 -374 -129 2 c-146 3 -224 -11 -288
-54 -40 -27 -76 -90 -77 -134 0 -39 35 -87 80 -110 117 -60 276 -22 427 99
l62 50 144 -59 c196 -80 271 -100 382 -100 182 0 311 60 387 179 31 50 38 101
12 101 -8 0 -35 -14 -60 -30 -145 -101 -372 -99 -726 5 l-58 16 32 62 c17 34
84 222 149 417 l118 355 93 35 c238 90 421 239 508 413 35 69 40 88 40 146 0
125 -58 181 -185 180 -38 0 -88 -6 -110 -13z m79 -107 c63 -29 65 -156 3 -272
-54 -103 -160 -179 -311 -226 -37 -11 -70 -21 -72 -21 -8 0 100 298 131 360
72 143 160 199 249 159z m-951 -1554 c17 -7 16 -10 -10 -38 -90 -95 -255 -84
-202 14 6 11 20 24 32 30 23 10 150 5 180 -6z"/>
<path d="M4183 651 c-52 -9 -53 -10 -60 -58 -4 -34 -2 -40 21 -52 14 -8 26
-18 26 -23 0 -4 -20 -18 -45 -30 -42 -20 -45 -21 -63 -5 -21 20 -82 23 -100 5
-7 -7 -12 -32 -12 -56 0 -24 -5 -52 -10 -63 -11 -19 -50 -27 -50 -9 0 8 -61
40 -76 40 -12 0 -1 -49 14 -62 22 -21 100 -21 130 -2 23 15 24 15 16 -8 -4
-12 -12 -57 -18 -99 -12 -81 -23 -102 -65 -122 -14 -7 -27 -20 -29 -30 -3 -14
4 -17 36 -17 45 0 86 33 114 92 10 21 31 44 48 53 28 14 30 14 30 -2 -1 -44
-23 -110 -50 -147 -17 -22 -30 -44 -30 -48 0 -4 23 -8 51 -8 54 0 79 15 79 49
0 24 20 71 31 71 4 0 12 -14 18 -30 8 -24 16 -30 40 -30 34 0 39 14 16 46 -13
19 -12 23 8 42 20 18 24 19 41 6 33 -24 97 -18 121 11 19 23 22 23 52 10 37
-16 70 -63 80 -115 9 -49 24 -60 82 -60 55 0 60 6 34 36 -46 51 -57 87 -60
190 -1 56 -7 113 -12 126 l-9 25 66 -14 c57 -12 68 -12 80 1 20 19 10 55 -30
107 -46 60 -62 63 -53 10 l7 -42 -29 7 c-58 14 -72 24 -108 78 -40 60 -101
111 -146 121 -31 7 -73 -11 -103 -44 -10 -11 -22 -18 -27 -15 -4 2 9 20 29 39
l37 34 -40 -1 c-22 0 -59 -4 -82 -7z m18 -43 l-34 -22 29 -13 c139 -62 173
-76 203 -79 46 -5 84 -31 76 -52 -4 -9 -9 -23 -12 -29 -3 -7 2 -13 11 -13 25
0 19 -13 -19 -39 -19 -13 -35 -30 -35 -37 0 -7 -10 -22 -22 -34 -14 -13 -17
-20 -8 -20 9 0 8 -5 -5 -14 -19 -14 -49 -11 -40 4 3 4 -2 13 -10 20 -20 17
-36 79 -25 99 7 13 12 10 27 -17 10 -17 21 -32 26 -32 10 0 9 48 -2 52 -14 5
-25 68 -11 68 6 0 14 -10 19 -22 7 -19 8 -19 14 -4 4 10 5 21 2 25 -2 4 -56
34 -120 66 -63 33 -115 64 -115 70 0 17 14 32 35 38 43 11 49 6 16 -15z m52
-128 c26 -13 28 -17 22 -49 -4 -20 -7 -66 -6 -104 0 -65 0 -67 -20 -56 -25 13
-48 -5 -91 -71 l-29 -45 7 75 c4 41 13 90 20 109 20 48 17 58 -8 34 -13 -11
-28 -19 -33 -17 -6 3 -16 -11 -23 -30 -14 -37 -84 -106 -90 -88 -5 16 17 92
27 92 5 0 12 15 15 34 10 55 74 95 95 59 9 -16 11 -15 20 9 10 27 51 71 61 65
3 -1 18 -9 33 -17z"/>
</g>
</svg>
